<?xml version="1.0" encoding="UTF-8" standalone="no"?><!-- Generator: Gravit.io --><svg xmlns="http://www.w3.org/2000/svg" xmlns:xlink="http://www.w3.org/1999/xlink" style="isolation:isolate" viewBox="0 0 919.465 762.938" width="919.465pt" height="762.938pt"><defs><clipPath id="_clipPath_tmSnfAEzzjIDLPCj0DMx1yje0deQG70D"><rect width="919.465" height="762.938"/></clipPath></defs><g clip-path="url(#_clipPath_tmSnfAEzzjIDLPCj0DMx1yje0deQG70D)"><g><g><path d=" M 395.013 39.67 C 501.754 -10.787 602.487 -10.941 686.705 26.933 C 771.14 64.5 839.061 140.098 885.196 234.047 C 929.466 328.931 929.419 430.846 893.264 513.289 C 856.608 596.962 795.598 660.044 712.459 705.066 C 668.429 727.735 622.147 743.264 563.311 752.797 C 505.251 762.191 434.635 765.587 359.818 760.741 C 211.344 751.421 44.942 707.66 9.851 608.951 C -10.036 559.939 2.447 503.754 27.171 447.212 C 52.301 390.588 89.674 333.608 128.911 281.097 C 168.556 228.504 210.066 180.38 252.802 139.567 C 295.943 98.673 340.31 65.091 395.013 39.671 L 395.013 39.67 Z " fill="rgb(96,85,196)"/><linearGradient id="_lgradient_2" x1="0.40399940041693505" y1="1.0000056425714552" x2="0.5960024261808857" y2="0.17024021560675306" gradientTransform="matrix(919.465,0,0,762.938,0,0)" gradientUnits="userSpaceOnUse"><stop offset="0%" stop-opacity="1" style="stop-color:rgb(255,143,90)"/><stop offset="99%" stop-opacity="1" style="stop-color:rgb(255,47,150)"/><stop offset="100%" stop-opacity="1" style="stop-color:rgb(255,47,150)"/></linearGradient><path d=" M 395.013 39.67 C 501.754 -10.787 602.487 -10.941 686.705 26.933 C 771.14 64.5 839.061 140.098 885.196 234.047 C 929.466 328.931 929.419 430.846 893.264 513.289 C 856.608 596.962 795.598 660.044 712.459 705.066 C 668.429 727.735 622.147 743.264 563.311 752.797 C 505.251 762.191 434.635 765.587 359.818 760.741 C 211.344 751.421 44.942 707.66 9.851 608.951 C -10.036 559.939 2.447 503.754 27.171 447.212 C 52.301 390.588 89.674 333.608 128.911 281.097 C 168.556 228.504 210.066 180.38 252.802 139.567 C 295.943 98.673 340.31 65.091 395.013 39.671 L 395.013 39.67 Z " fill="url(#_lgradient_2)"/></g></g></g></svg>