<svg xmlns="http://www.w3.org/2000/svg" style="isolation:isolate" viewBox="0 0 919.465 762.938" width="1225.953" height="1017.251"><defs><clipPath id="a"><path d="M0 0h919.465v762.938H0z"/></clipPath></defs><g clip-path="url(#a)"><path d="M395.013 39.67c106.741-50.457 207.474-50.611 291.692-12.737C771.14 64.5 839.061 140.098 885.196 234.047c44.27 94.884 44.223 196.799 8.068 279.242-36.656 83.673-97.666 146.755-180.805 191.777-44.03 22.669-90.312 38.198-149.148 47.731-58.06 9.394-128.676 12.79-203.493 7.944-148.474-9.32-314.876-53.081-349.967-151.79-19.887-49.012-7.404-105.197 17.32-161.739 25.13-56.624 62.503-113.604 101.74-166.115 39.645-52.593 81.155-100.717 123.891-141.53 43.141-40.894 87.508-74.476 142.211-99.896v-.001z" fill="#6055C4"/><linearGradient id="b" x1=".404" y1="1" x2=".596" y2=".17" gradientTransform="scale(919.465 762.938)" gradientUnits="userSpaceOnUse"><stop offset="0%" stop-color="#ff8f5a"/><stop offset="99%" stop-color="#ff2f96"/><stop offset="100%" stop-color="#ff2f96"/></linearGradient><path d="M395.013 39.67c106.741-50.457 207.474-50.611 291.692-12.737C771.14 64.5 839.061 140.098 885.196 234.047c44.27 94.884 44.223 196.799 8.068 279.242-36.656 83.673-97.666 146.755-180.805 191.777-44.03 22.669-90.312 38.198-149.148 47.731-58.06 9.394-128.676 12.79-203.493 7.944-148.474-9.32-314.876-53.081-349.967-151.79-19.887-49.012-7.404-105.197 17.32-161.739 25.13-56.624 62.503-113.604 101.74-166.115 39.645-52.593 81.155-100.717 123.891-141.53 43.141-40.894 87.508-74.476 142.211-99.896v-.001z" fill="url(#b)"/></g></svg>